<svg width="163" height="163" viewBox="0 0 163 163" fill="none" xmlns="http://www.w3.org/2000/svg">
<path d="M81.5 0L93.3125 37.4151L122.25 10.9189L113.772 49.2276L152.081 40.75L125.585 69.6875L163 81.5L125.585 93.3125L152.081 122.25L113.772 113.772L122.25 152.081L93.3125 125.585L81.5 163L69.6875 125.585L40.75 152.081L49.2276 113.772L10.9189 122.25L37.4151 93.3125L0 81.5L37.4151 69.6875L10.9189 40.75L49.2276 49.2276L40.75 10.9189L69.6875 37.4151L81.5 0Z" fill="#D4DBF7"/>
<path d="M40.68 89C38.56 89 37.58 88.06 37.58 85.94V80.3H35.9V78.32H37.58V75.82H40.14V78.32H42.96V80.3H40.14V85.7C40.14 86.7 40.56 87.02 41.46 87.02H42.96V89H40.68ZM48.6198 89.24C45.4398 89.24 43.3598 87.04 43.3598 83.66C43.3598 80.28 45.4398 78.08 48.6198 78.08C51.7798 78.08 53.8598 80.28 53.8598 83.66C53.8598 87.04 51.7798 89.24 48.6198 89.24ZM48.6198 87.16C50.2598 87.16 51.2198 85.88 51.2198 83.66C51.2198 81.46 50.2598 80.16 48.6198 80.16C46.9598 80.16 46.0198 81.46 46.0198 83.66C46.0198 85.88 46.9598 87.16 48.6198 87.16ZM62.3548 89.24C60.1148 89.24 58.6348 88.18 58.6348 86.32C58.6348 84.48 59.7748 83.5 62.1148 83.04L65.6548 82.34C65.6548 80.84 64.9548 80.06 63.6148 80.06C62.3548 80.06 61.6748 80.64 61.4348 81.72L58.8148 81.6C59.2348 79.36 60.9548 78.08 63.6148 78.08C66.6548 78.08 68.2148 79.68 68.2148 82.52V86.4C68.2148 86.98 68.4148 87.14 68.8148 87.14H69.1548V89C68.9948 89.04 68.5748 89.08 68.2348 89.08C67.0748 89.08 66.2148 88.66 65.9948 87.34C65.4748 88.48 64.1148 89.24 62.3548 89.24ZM62.8748 87.38C64.5748 87.38 65.6548 86.3 65.6548 84.68V84.08L62.8948 84.64C61.7548 84.86 61.2948 85.34 61.2948 86.08C61.2948 86.92 61.8548 87.38 62.8748 87.38ZM70.2898 89V78.32H72.6098L72.6698 80.16C73.2298 78.68 74.4498 78.08 75.8698 78.08C78.2298 78.08 79.5098 79.74 79.5098 82.14V89H76.9498V82.96C76.9498 81.16 76.4698 80.16 75.0898 80.16C73.7098 80.16 72.8498 81.16 72.8498 82.96V89H70.2898ZM81.8709 92V90.02H83.2309C83.9309 90.02 84.2109 89.82 84.4109 89.32L84.6909 88.58H83.9509L80.1509 78.32H82.7909L85.4909 86.18L88.0309 78.32H90.6909L86.5109 90.12C86.0509 91.44 85.2509 92 83.6909 92H81.8709ZM95.8503 89.24C92.6703 89.24 90.5903 87.04 90.5903 83.66C90.5903 80.28 92.6703 78.08 95.8503 78.08C99.0103 78.08 101.09 80.28 101.09 83.66C101.09 87.04 99.0103 89.24 95.8503 89.24ZM95.8503 87.16C97.4903 87.16 98.4503 85.88 98.4503 83.66C98.4503 81.46 97.4903 80.16 95.8503 80.16C94.1903 80.16 93.2503 81.46 93.2503 83.66C93.2503 85.88 94.1903 87.16 95.8503 87.16ZM102.363 89V78.32H104.683L104.743 80.16C105.303 78.68 106.523 78.08 107.943 78.08C110.303 78.08 111.583 79.74 111.583 82.14V89H109.023V82.96C109.023 81.16 108.543 80.16 107.163 80.16C105.783 80.16 104.923 81.16 104.923 82.96V89H102.363ZM117.98 89.24C114.78 89.24 112.74 87.04 112.74 83.66C112.74 80.3 114.78 78.08 117.92 78.08C120.98 78.08 123 80.2 123 83.8V84.38H115.4C115.5 86.26 116.48 87.2 118 87.2C119.14 87.2 119.92 86.66 120.22 85.72L122.84 85.88C122.26 87.96 120.44 89.24 117.98 89.24ZM120.34 82.66C120.22 80.92 119.28 80.1 117.92 80.1C116.54 80.1 115.6 81 115.4 82.66H120.34ZM123.835 89V86.2H126.775V89H123.835Z" fill="#1F56FF"/>
</svg>
