<svg width="24" height="24" viewBox="0 0 24 24" fill="none" xmlns="http://www.w3.org/2000/svg">
<g id="Farcaster">
<rect id="Rectangle 11" width="24" height="24" rx="5.33333" fill="#855DCD"/>
<g id="Vector">
<path d="M6.1866 3.73242H17.8133V20.2658H16.1066V12.6924H16.0899C15.9012 10.5993 14.1421 8.95909 11.9999 8.95909C9.85773 8.95909 8.09862 10.5993 7.91 12.6924H7.89326V20.2658H6.1866V3.73242Z" fill="white"/>
<path d="M3.09326 6.07909L3.7866 8.42576H4.37326V17.9191C4.07871 17.9191 3.83993 18.1579 3.83993 18.4524V19.0924H3.73326C3.43871 19.0924 3.19993 19.3312 3.19993 19.6258V20.2658H9.17326V19.6258C9.17326 19.3312 8.93448 19.0924 8.63993 19.0924H8.53326V18.4524C8.53326 18.1579 8.29448 17.9191 7.99993 17.9191H7.35993V6.07909H3.09326Z" fill="white"/>
<path d="M16.2133 17.9191C15.9187 17.9191 15.6799 18.1579 15.6799 18.4524V19.0924H15.5733C15.2787 19.0924 15.0399 19.3312 15.0399 19.6258V20.2658H21.0133V19.6258C21.0133 19.3312 20.7745 19.0924 20.4799 19.0924H20.3733V18.4524C20.3733 18.1579 20.1345 17.9191 19.8399 17.9191V8.42576H20.4266L21.1199 6.07909H16.8533V17.9191H16.2133Z" fill="white"/>
</g>
</g>
</svg>
