<svg width="25" height="33" viewBox="0 0 25 33" fill="none" xmlns="http://www.w3.org/2000/svg">
<mask id="mask0_194_1713" style="mask-type:luminance" maskUnits="userSpaceOnUse" x="0" y="0" width="25" height="32">
<path d="M1.38569 0C0.620397 0 0 0.620396 0 1.38569V23.5064C0 23.9797 0.241583 24.4203 0.64066 24.6748L11.7288 31.7454C12.1832 32.0351 12.7644 32.0351 13.2189 31.7454L24.307 24.6748C24.7061 24.4203 24.9477 23.9797 24.9477 23.5064V1.38569C24.9477 0.620396 24.3273 0 23.562 0H1.38569Z" fill="white"/>
</mask>
<g mask="url(#mask0_194_1713)">
<path d="M6.59222 6.81207V9.47785H8.31551V13.0622H6.59222V19.3122H2.45703V3.22656H8.43168V6.81087H6.59342L6.59222 6.81207Z" fill="white"/>
<path d="M13.21 3.22701C15.9441 3.22701 17.5297 4.65091 17.5297 7.17897V7.29393C17.5297 9.70702 16.1968 10.9477 15.186 10.9477V11.2231C16.1513 11.2231 17.7596 12.6937 17.7596 15.0601V15.3583C17.7596 17.8397 16.0363 19.3103 13.21 19.3103H8.98145V3.22461H13.21V3.22701ZM13.1178 9.29386H13.1633C13.3933 9.29386 13.3933 9.24836 13.3933 8.92621V7.18016C13.3933 6.85802 13.3933 6.81251 13.1633 6.81251H13.1178V9.29386ZM13.1178 15.7284H13.1633C13.3933 15.7284 13.3933 15.6817 13.3933 15.3607V13.247C13.3933 12.9249 13.3933 12.8794 13.1633 12.8794H13.1178V15.7296V15.7284Z" fill="white"/>
<path d="M22.4938 3.22656V19.3122H18.3574V3.22656H22.4938Z" fill="white"/>
<path d="M7.28094 17.2812H7.34082C7.43423 17.2812 7.50848 17.3567 7.50848 17.4489V20.2105H7.11328V17.4489C7.11328 17.3555 7.18873 17.2812 7.28094 17.2812Z" fill="#9259EF"/>
<path d="M17.1784 17.2812H17.2383C17.3317 17.2812 17.4059 17.3567 17.4059 17.4489V20.2105H17.0107V17.4489C17.0107 17.3555 17.0862 17.2812 17.1784 17.2812Z" fill="#9259EF"/>
<path d="M8.10672 20.2134H6.52234V21.3799H5.58105V22.6924H12.2575V17.9297H8.10672V20.2134Z" fill="#300A6F"/>
<path d="M17.9929 21.3799V20.2134H16.4086V17.9297H12.2578V22.6924H18.9342V21.3799H17.9929Z" fill="#300A6F"/>
<path d="M17.4058 17.9297H16.4082V20.2122H17.4058V17.9297Z" fill="#300A6F"/>
<path d="M8.11085 17.9297H7.11328V20.2122H8.11085V17.9297Z" fill="#300A6F"/>
<path d="M12.2106 23.707H12.1699H12.1292L5.59766 23.7597V35.636H10.0059V27.4626C10.0059 27.368 9.98433 27.2722 9.99272 27.1788C9.97954 27.0818 9.95918 26.9836 9.95918 26.883C9.95918 25.6471 10.9544 24.6459 12.1902 24.6459C13.4261 24.6459 14.4249 25.6471 14.4249 26.883C14.4249 27.0291 14.4249 27.1716 14.3974 27.3105C14.3998 27.3608 14.4141 27.4123 14.4141 27.4626V35.636H18.7409V23.7597L12.2094 23.707H12.2106Z" fill="#300A6F"/>
<path d="M17.5606 24.7875C17.5606 24.7612 17.5534 24.7348 17.5402 24.7013C17.5199 24.6414 17.4935 24.5684 17.4409 24.4953C17.3882 24.4223 17.3151 24.3492 17.2217 24.2965C17.1283 24.2438 17.0157 24.2103 16.8972 24.2031H16.8109C16.7774 24.2103 16.7451 24.2103 16.7175 24.2163C16.6576 24.2295 16.5978 24.2558 16.5451 24.2822C16.4325 24.342 16.3391 24.4283 16.2732 24.5408C16.2397 24.5935 16.2205 24.6534 16.2002 24.7133C16.187 24.7732 16.1738 24.839 16.1738 24.8989C16.1738 24.9253 16.1738 24.972 16.181 24.9983C16.181 25.0247 16.1942 25.0582 16.2014 25.0845C16.2217 25.1444 16.2409 25.2043 16.2744 25.257C16.3403 25.3636 16.4337 25.4558 16.5463 25.5157C16.6588 25.5755 16.7786 25.6019 16.8972 25.6019C17.0097 25.5947 17.1295 25.5624 17.2217 25.5085C17.3139 25.4546 17.387 25.3827 17.4409 25.3097C17.4935 25.2366 17.5199 25.1636 17.5402 25.1037C17.5474 25.0702 17.5534 25.0438 17.5606 25.0175C17.5678 24.9911 17.5678 24.9708 17.5678 24.9516V24.845C17.575 24.8318 17.5678 24.8115 17.5606 24.7851V24.7875Z" fill="#9259EF"/>
<path d="M17.4869 24.799C17.4869 24.7751 17.4809 24.7511 17.4689 24.7224C17.4509 24.6697 17.427 24.6038 17.3803 24.5392C17.3324 24.4745 17.2677 24.4086 17.1851 24.3619C17.1024 24.3152 17.0018 24.2853 16.8953 24.2793H16.8186C16.7887 24.2853 16.7599 24.2853 16.736 24.2913C16.6833 24.3032 16.6294 24.3272 16.5827 24.35C16.4821 24.4026 16.3995 24.4805 16.3396 24.5811C16.3097 24.629 16.2917 24.6817 16.2749 24.7344C16.263 24.7871 16.251 24.8469 16.251 24.8996C16.251 24.9236 16.251 24.9643 16.257 24.9883C16.257 25.0122 16.2689 25.041 16.2749 25.0649C16.2929 25.1176 16.3109 25.1715 16.3396 25.2182C16.3983 25.3128 16.4821 25.3954 16.5827 25.4493C16.6833 25.502 16.7899 25.526 16.8965 25.526C16.9971 25.52 17.1036 25.49 17.1863 25.4433C17.2689 25.3966 17.3348 25.3308 17.3815 25.2661C17.4294 25.2014 17.4521 25.1356 17.4701 25.0829C17.4761 25.0529 17.4821 25.0302 17.4881 25.0062C17.494 24.9823 17.494 24.9643 17.494 24.9475V24.8529C17.5 24.841 17.494 24.823 17.4881 24.8002L17.4869 24.799Z" fill="#6537B1"/>
<path d="M15.2589 19.1837C15.2589 19.2041 15.2661 19.2304 15.2721 19.2568C15.2853 19.3095 15.3116 19.3694 15.3583 19.4292C15.405 19.4891 15.4649 19.549 15.5439 19.5945C15.623 19.6412 15.7164 19.6676 15.8158 19.6676C15.9224 19.6676 16.0146 19.6412 16.108 19.5945C16.1942 19.5478 16.2733 19.4688 16.3271 19.3825C16.3535 19.3358 16.3738 19.2891 16.387 19.2436C16.4002 19.1909 16.4074 19.1574 16.4074 19.0915V19.058C16.4074 19.0448 16.4074 19.0316 16.4002 19.0185C16.4002 18.9921 16.393 18.9658 16.387 18.9454C16.3738 18.8987 16.3535 18.846 16.3271 18.8065C16.2745 18.7203 16.2014 18.6412 16.108 18.5945C16.0613 18.5682 16.0146 18.5478 15.9691 18.5418C15.9487 18.5347 15.9164 18.5287 15.89 18.5287C15.8697 18.5287 15.8433 18.5215 15.817 18.5215C15.7176 18.5215 15.6242 18.5478 15.5451 18.5945C15.4661 18.6412 15.4062 18.7011 15.3595 18.7598C15.3128 18.8197 15.2936 18.8796 15.2733 18.9322C15.2661 18.9586 15.2601 18.979 15.2601 19.0053C15.2529 19.0257 15.2529 19.0448 15.2529 19.058V19.1514C15.2529 19.1514 15.2529 19.1646 15.2601 19.1849L15.2589 19.1837Z" fill="#9259EF"/>
<path d="M13.4209 18.5477C13.0329 18.5405 12.6448 18.5345 12.2568 18.5273V19.6219C12.2568 19.6219 12.2628 19.6219 12.2652 19.6219C12.6532 19.6219 13.0412 19.6147 13.4293 19.6147H14.446V18.5609L13.4209 18.5477Z" fill="#6537B1"/>
<path d="M11.0935 18.5477C11.4815 18.5405 11.8695 18.5345 12.2575 18.5273V19.6219C12.2575 19.6219 12.2515 19.6219 12.2491 19.6219C11.8611 19.6219 11.4731 19.6147 11.0851 19.6147H10.0684V18.5609L11.0935 18.5477Z" fill="#6537B1"/>
<path d="M15.8289 17.1543H8.58008V17.9279H15.8289V17.1543Z" fill="#6537B1"/>
<path d="M13.9497 16.9863H10.46C10.46 16.4342 10.9079 15.9863 11.4599 15.9863H12.9509C13.503 15.9863 13.9509 16.4342 13.9509 16.9863H13.9497Z" fill="#300A6F"/>
<path d="M8.72472 34.6521C8.71155 34.3467 8.69837 33.9958 8.69119 33.6174C8.69119 33.4246 8.684 33.233 8.684 33.0342C8.684 32.8354 8.684 32.6294 8.67682 32.4306C8.67682 32.2246 8.67682 32.0258 8.684 31.827C8.684 31.6282 8.69119 31.4294 8.69119 31.2438C8.69119 31.0582 8.69837 30.8726 8.70436 30.6929C8.71155 30.5205 8.71753 30.3552 8.72472 30.2019C8.74508 29.784 8.76424 29.4594 8.77741 29.3002H7.49722L6.44336 29.293C6.45653 29.4522 6.48288 29.7768 6.49605 30.2007C6.50923 30.5061 6.5224 30.857 6.52958 31.2354C6.52958 31.4282 6.53677 31.6198 6.53677 31.8186C6.53677 32.0174 6.53677 32.2234 6.54395 32.4222C6.54395 32.6282 6.54395 32.827 6.53677 33.0258C6.53677 33.2246 6.52958 33.4234 6.52958 33.609C6.52958 33.7946 6.5224 33.9802 6.51641 34.1599C6.50923 34.3323 6.50324 34.4976 6.49605 34.6509C6.48408 34.9431 6.46971 35.1874 6.45653 35.3622H8.76065C8.74747 35.1862 8.7331 34.9419 8.72352 34.6509L8.72472 34.6521Z" fill="#6537B1"/>
<path d="M17.9249 34.6521C17.9117 34.3467 17.8986 33.9958 17.8914 33.6174C17.8914 33.4246 17.8842 33.233 17.8842 33.0342C17.8842 32.8354 17.8842 32.6294 17.877 32.4306C17.877 32.2246 17.877 32.0258 17.8842 31.827C17.8842 31.6282 17.8914 31.4294 17.8914 31.2438C17.8914 31.0582 17.8986 30.8726 17.9046 30.6929C17.9117 30.5205 17.9177 30.3552 17.9249 30.2019C17.9453 29.784 17.9644 29.4594 17.9776 29.3002H16.6974L15.6436 29.293C15.6567 29.4522 15.6831 29.7768 15.6962 30.2007C15.7094 30.5061 15.7226 30.857 15.7298 31.2354C15.7298 31.4282 15.737 31.6198 15.737 31.8186C15.737 32.0174 15.737 32.2234 15.7442 32.4222C15.7442 32.6282 15.7441 32.827 15.737 33.0258C15.737 33.2246 15.7298 33.4234 15.7298 33.609C15.7298 33.7946 15.7226 33.9802 15.7166 34.1599C15.7094 34.3323 15.7034 34.4976 15.6962 34.6509C15.6843 34.9431 15.6699 35.1874 15.6567 35.3622H17.9608C17.9477 35.1862 17.9333 34.9419 17.9237 34.6509L17.9249 34.6521Z" fill="#6537B1"/>
<path d="M9.00309 26.1465H6.21875V26.756H9.00309V26.1465Z" fill="#6537B1"/>
<path d="M9.00309 27.6055H6.21875V28.4474H9.00309V27.6055Z" fill="#6537B1"/>
<path d="M18.2648 26.1465H15.4805V26.756H18.2648V26.1465Z" fill="#6537B1"/>
<path d="M18.2648 27.6055H15.4805V28.4474H18.2648V27.6055Z" fill="#6537B1"/>
<path d="M18.9339 21.3789H5.58105V21.6639H18.9339V21.3789Z" fill="#9259EF"/>
<path d="M17.9927 20.2129H6.52246V20.4536H17.9927V20.2129Z" fill="#9259EF"/>
<path d="M14.9019 16.873H9.50684V17.1545H14.9019V16.873Z" fill="#9259EF"/>
<path d="M18.7017 22.918H5.60156V23.7599H18.7017V22.918Z" fill="#300A6F"/>
<path d="M19.564 22.0391H4.84473V23.1265H19.564V22.0391Z" fill="#9259EF"/>
<path d="M5.92459 23.1445H5.59766V23.7158H5.92459V23.1445Z" fill="#9259EF"/>
<path d="M6.57851 23.1445H6.33301V23.7158H6.57851V23.1445Z" fill="#9259EF"/>
<path d="M7.23183 23.1445H6.98633V23.7158H7.23183V23.1445Z" fill="#9259EF"/>
<path d="M7.88515 23.1445H7.63965V23.7158H7.88515V23.1445Z" fill="#9259EF"/>
<path d="M8.61952 23.1445H8.37402V23.7158H8.61952V23.1445Z" fill="#9259EF"/>
<path d="M9.27382 23.1445H9.02832V23.7158H9.27382V23.1445Z" fill="#9259EF"/>
<path d="M9.92616 23.1445H9.68066V23.7158H9.92616V23.1445Z" fill="#9259EF"/>
<path d="M10.6599 23.1445H10.333V23.7158H10.6599V23.1445Z" fill="#9259EF"/>
<path d="M11.3142 23.1445H10.9873V23.7158H11.3142V23.1445Z" fill="#9259EF"/>
<path d="M11.9672 23.1445H11.7217V23.7158H11.9672V23.1445Z" fill="#9259EF"/>
<path d="M12.6189 23.1445H12.4561V23.7158H12.6189V23.1445Z" fill="#9259EF"/>
<path d="M13.2738 23.1445H13.0283V23.7158H13.2738V23.1445Z" fill="#9259EF"/>
<path d="M14.0082 23.1445H13.7627V23.7158H14.0082V23.1445Z" fill="#9259EF"/>
<path d="M14.743 23.1445H14.416V23.7158H14.743V23.1445Z" fill="#9259EF"/>
<path d="M15.3139 23.1445H15.0684V23.7158H15.3139V23.1445Z" fill="#9259EF"/>
<path d="M16.0492 23.1445H15.8037V23.7158H16.0492V23.1445Z" fill="#9259EF"/>
<path d="M16.7016 23.1445H16.4561V23.7158H16.7016V23.1445Z" fill="#9259EF"/>
<path d="M17.3559 23.1445H17.1104V23.7158H17.3559V23.1445Z" fill="#9259EF"/>
<path d="M18.0076 23.1445H17.8447V23.7158H18.0076V23.1445Z" fill="#9259EF"/>
<path d="M18.743 23.1445H18.416V23.7158H18.743V23.1445Z" fill="#9259EF"/>
<path d="M9.54624 24.2871L9.47559 35.7298L9.92467 35.7047V26.814C9.92467 24.8691 11.6396 24.5254 12.0468 24.4667V24.2871H9.54504H9.54624Z" fill="#6537B1"/>
<path d="M14.9055 35.7298L14.7929 24.2871H12.375V24.4655C12.7834 24.5206 14.4971 24.8607 14.4971 26.8128V35.7035L14.9055 35.7286V35.7298Z" fill="#6537B1"/>
<path d="M9.85763 29.0609C9.91032 29.0609 9.95702 29.1004 9.9702 29.1603C10.0828 29.1603 10.1953 29.1603 10.3079 29.1675C10.3151 28.9423 10.3151 28.7232 10.3151 28.498H9.9702C9.97738 28.5448 9.93068 28.5974 9.8708 28.5974C9.50674 28.5974 9.14867 28.5903 8.78341 28.5843C8.45648 28.5783 8.13433 28.5723 7.80859 28.5663V29.0681L9.85763 29.0621V29.0609Z" fill="#9259EF"/>
<path d="M9.87723 27.3773C9.93711 27.3773 9.98381 27.4168 9.9898 27.4767C10.1024 27.4767 10.2149 27.4767 10.3275 27.4839C10.3347 27.2587 10.3347 27.0396 10.3347 26.8145H10.0293L10.0221 26.8348V26.842C10.009 26.8887 9.96944 26.921 9.92274 26.921L8.82816 26.9138L7.80664 26.9079V27.4096L8.78745 27.3857L9.87483 27.3785L9.87723 27.3773Z" fill="#9259EF"/>
<path d="M5.7602 29.0609C5.70751 29.0609 5.66081 29.1004 5.64763 29.1603C5.53506 29.1603 5.42249 29.1603 5.30992 29.1675C5.30273 28.9423 5.30273 28.7232 5.30273 28.498H5.64763C5.64045 28.5448 5.68715 28.5974 5.74703 28.5974C6.11109 28.5974 6.46916 28.5903 6.83442 28.5843C7.16135 28.5783 7.4835 28.5723 7.80924 28.5663V29.0681L5.7602 29.0621V29.0609Z" fill="#9259EF"/>
<path d="M5.74067 27.3773C5.68079 27.3773 5.63409 27.4168 5.6281 27.4767C5.51553 27.4767 5.40296 27.4767 5.29039 27.4839C5.2832 27.2587 5.2832 27.0396 5.2832 26.8145H5.58858L5.59577 26.8348V26.842C5.60894 26.8887 5.64846 26.921 5.69516 26.921L6.78974 26.9138L7.81126 26.9079V27.4096L6.83046 27.3857L5.74307 27.3785L5.74067 27.3773Z" fill="#9259EF"/>
<path d="M18.6955 29.0609C18.7482 29.0609 18.7949 29.1004 18.8081 29.1603C18.9207 29.1603 19.0332 29.1603 19.1458 29.1675C19.153 28.9423 19.153 28.7232 19.153 28.498H18.8081C18.8153 28.5448 18.7686 28.5974 18.7087 28.5974C18.3434 28.5974 17.9866 28.5903 17.6213 28.5843C17.2944 28.5783 16.9722 28.5723 16.6465 28.5663V29.0681L18.6955 29.0621V29.0609Z" fill="#9259EF"/>
<path d="M18.7151 27.3773C18.775 27.3773 18.8217 27.4168 18.8277 27.4767C18.9403 27.4767 19.0528 27.4767 19.1654 27.4839C19.1726 27.2587 19.1726 27.0396 19.1726 26.8145H18.8672L18.86 26.8348V26.842C18.8469 26.8887 18.8073 26.921 18.7606 26.921L17.6661 26.9138L16.6445 26.9079V27.4096L17.6253 27.3857L18.7127 27.3785L18.7151 27.3773Z" fill="#9259EF"/>
<path d="M14.5981 29.0609C14.5454 29.0609 14.4987 29.1004 14.4855 29.1603C14.373 29.1603 14.2604 29.1603 14.1478 29.1675C14.1406 28.9423 14.1406 28.7232 14.1406 28.498H14.4855C14.4783 28.5448 14.525 28.5974 14.5849 28.5974C14.9502 28.5974 15.3071 28.5903 15.6723 28.5843C15.9992 28.5783 16.3214 28.5723 16.6471 28.5663V29.0681L14.5981 29.0621V29.0609Z" fill="#9259EF"/>
<path d="M14.5786 27.3773C14.5187 27.3773 14.472 27.4168 14.466 27.4767C14.3534 27.4767 14.2409 27.4767 14.1283 27.4839C14.1211 27.2587 14.1211 27.0396 14.1211 26.8145H14.4265L14.4337 26.8348V26.842C14.4468 26.8887 14.4864 26.921 14.5331 26.921L15.6276 26.9138L16.6492 26.9079V27.4096L15.6683 27.3857L14.581 27.3785L14.5786 27.3773Z" fill="#9259EF"/>
<path d="M9.15738 19.1514V19.058C9.15738 19.0448 9.15738 19.0245 9.1502 19.0053C9.1502 18.979 9.14301 18.9586 9.13702 18.9322C9.11666 18.8796 9.0975 18.8197 9.0508 18.7598C9.00409 18.6999 8.94421 18.64 8.86518 18.5945C8.78614 18.5478 8.69273 18.5215 8.59333 18.5215C8.56698 18.5215 8.54064 18.5287 8.52028 18.5287C8.49393 18.5287 8.4604 18.5359 8.44124 18.5418C8.39453 18.549 8.34783 18.5682 8.30232 18.5945C8.20891 18.6412 8.13706 18.7203 8.08317 18.8065C8.05682 18.846 8.03646 18.8999 8.02329 18.9454C8.0161 18.9658 8.01011 18.9921 8.01011 19.0185C8.00293 19.0316 8.00293 19.0448 8.00293 19.058V19.0915C8.00293 19.1574 8.01011 19.1909 8.02329 19.2436C8.03646 19.2903 8.05682 19.337 8.08317 19.3825C8.13586 19.4688 8.2161 19.5478 8.30232 19.5945C8.39573 19.6412 8.48794 19.6676 8.59453 19.6676C8.69392 19.6676 8.78733 19.6412 8.86637 19.5945C8.94541 19.5478 9.00529 19.4879 9.052 19.4292C9.0987 19.3694 9.12505 19.3095 9.13822 19.2568C9.14541 19.2304 9.15139 19.2041 9.15139 19.1837C9.15858 19.1634 9.15858 19.1502 9.15858 19.1502L9.15738 19.1514Z" fill="#9259EF"/>
<path d="M9.08518 19.1446V19.0632C9.08518 19.0512 9.08518 19.0345 9.0792 19.0165C9.0792 18.9937 9.07321 18.9758 9.06722 18.953C9.04926 18.9063 9.03249 18.8548 8.99177 18.8021C8.95106 18.7494 8.89836 18.6979 8.82891 18.6572C8.75945 18.6165 8.67801 18.5938 8.59059 18.5938C8.56784 18.5938 8.54388 18.5997 8.52712 18.5997C8.50437 18.5997 8.47443 18.6057 8.45766 18.6117C8.41694 18.6177 8.37623 18.6345 8.33551 18.6584C8.25407 18.6991 8.1906 18.7686 8.1439 18.844C8.12115 18.8788 8.10318 18.9255 8.09121 18.9662C8.08522 18.9842 8.07923 19.0069 8.07923 19.0297C8.07324 19.0416 8.07324 19.0524 8.07324 19.0644V19.0931C8.07324 19.1506 8.07923 19.1806 8.09121 19.2273C8.10318 19.268 8.11995 19.3087 8.1439 19.3494C8.1906 19.4249 8.26006 19.4943 8.33551 19.535C8.41694 19.5758 8.49838 19.5985 8.59059 19.5985C8.67801 19.5985 8.75945 19.5758 8.82891 19.535C8.89836 19.4943 8.95106 19.4416 8.99177 19.3901C9.03249 19.3374 9.05525 19.2859 9.06722 19.2392C9.07321 19.2165 9.0792 19.1925 9.0792 19.1758C9.08518 19.1578 9.08518 19.147 9.08518 19.147V19.1446Z" fill="#6537B1"/>
<path d="M16.3342 19.1446V19.0632C16.3342 19.0512 16.3342 19.0345 16.3282 19.0165C16.3282 18.9937 16.3222 18.9758 16.3162 18.953C16.2983 18.9063 16.2815 18.8548 16.2408 18.8021C16.2001 18.7494 16.1474 18.6979 16.0779 18.6572C16.0085 18.6165 15.927 18.5938 15.8396 18.5938C15.8169 18.5938 15.7929 18.5997 15.7761 18.5997C15.7534 18.5997 15.7234 18.6057 15.7067 18.6117C15.666 18.6177 15.6252 18.6345 15.5845 18.6584C15.5031 18.6991 15.4396 18.7686 15.3929 18.844C15.3702 18.8788 15.3522 18.9255 15.3402 18.9662C15.3342 18.9842 15.3283 19.0069 15.3283 19.0297C15.3223 19.0416 15.3223 19.0524 15.3223 19.0644V19.0931C15.3223 19.1506 15.3283 19.1806 15.3402 19.2273C15.3522 19.268 15.369 19.3087 15.3929 19.3494C15.4396 19.4249 15.5091 19.4943 15.5845 19.535C15.666 19.5758 15.7474 19.5985 15.8396 19.5985C15.927 19.5985 16.0085 19.5758 16.0779 19.535C16.1474 19.4943 16.2001 19.4416 16.2408 19.3901C16.2815 19.3374 16.3043 19.2859 16.3162 19.2392C16.3222 19.2165 16.3282 19.1925 16.3282 19.1758C16.3342 19.1578 16.3342 19.147 16.3342 19.147V19.1446Z" fill="#6537B1"/>
<path d="M6.85528 25.0187C6.85528 25.045 6.86247 25.0714 6.87564 25.1049C6.896 25.1648 6.92235 25.2378 6.97504 25.3109C7.02773 25.3839 7.10078 25.457 7.19419 25.5097C7.2876 25.5624 7.40018 25.5959 7.51873 25.6031C7.64448 25.6103 7.76423 25.5767 7.86962 25.5169C7.98219 25.457 8.0756 25.3707 8.14147 25.2582C8.175 25.2055 8.19416 25.1456 8.21452 25.0857C8.22769 25.0199 8.24086 24.9791 8.24086 24.9001V24.8534C8.24086 24.8402 8.24086 24.8199 8.23368 24.8067C8.23368 24.7732 8.22051 24.7468 8.21332 24.7133C8.19296 24.6534 8.1738 24.5935 8.14027 24.5408C8.0744 24.4343 7.98099 24.342 7.86842 24.2822C7.81573 24.2558 7.75585 24.2295 7.69597 24.2163C7.66963 24.2091 7.63609 24.2031 7.60256 24.2031H7.51634C7.39658 24.2103 7.28401 24.2426 7.1918 24.2965C7.09959 24.3504 7.02654 24.4223 6.97265 24.4953C6.91995 24.5684 6.89361 24.6414 6.87325 24.7013C6.86606 24.7348 6.86007 24.7612 6.85289 24.7875C6.8457 24.8139 6.8457 24.8342 6.8457 24.8534V24.96C6.8457 24.9803 6.8457 24.9995 6.85289 25.0199L6.85528 25.0187Z" fill="#9259EF"/>
<path d="M8.15971 24.799C8.15971 24.7751 8.15373 24.7511 8.14175 24.7224C8.12379 24.6697 8.09984 24.6038 8.05313 24.5392C8.00523 24.4745 7.94056 24.4086 7.85793 24.3619C7.7753 24.3152 7.6747 24.2853 7.56812 24.2793H7.49147C7.46154 24.2853 7.43279 24.2853 7.40884 24.2913C7.35615 24.3032 7.30226 24.3272 7.25555 24.35C7.15496 24.4026 7.07233 24.4805 7.01245 24.5811C6.98251 24.629 6.96455 24.6817 6.94778 24.7344C6.9358 24.7871 6.92383 24.8469 6.92383 24.8996C6.92383 24.9236 6.92383 24.9643 6.92982 24.9883C6.92982 25.0122 6.94179 25.041 6.94778 25.0649C6.96574 25.1176 6.98371 25.1715 7.01245 25.2182C7.07113 25.3128 7.15496 25.3954 7.25555 25.4493C7.35615 25.502 7.46273 25.526 7.56932 25.526C7.66991 25.52 7.77649 25.49 7.85913 25.4433C7.94176 25.3966 8.00762 25.3308 8.05433 25.2661C8.10223 25.2014 8.12498 25.1356 8.14295 25.0829C8.14894 25.0529 8.15492 25.0302 8.16091 25.0062C8.1669 24.9823 8.1669 24.9643 8.1669 24.9475V24.8529C8.17289 24.841 8.1669 24.823 8.16091 24.8002L8.15971 24.799Z" fill="#6537B1"/>
<path d="M2.26906 2.11133V1.13995H2.98788V1.35643H2.52717V1.54099H2.95874V1.75747H2.52717V2.11133H2.26906ZM2.95934 2.11133L3.32568 1.13995H3.64901L4.01536 2.11133H3.73644L3.66567 1.89901H3.30487L3.23271 2.11133H2.95934ZM3.37425 1.68947H3.59489L3.52135 1.47161C3.50608 1.42304 3.49359 1.38557 3.48527 1.34949C3.47694 1.38557 3.46306 1.42304 3.4478 1.473L3.37425 1.68947ZM4.09581 2.11133V1.13995H4.56207C4.75218 1.13995 4.8965 1.22183 4.8965 1.40361C4.8965 1.5396 4.80353 1.61593 4.705 1.64368C4.82573 1.66311 4.87846 1.73943 4.87846 1.86155V2.11133H4.61897V1.88375C4.61897 1.788 4.57734 1.75469 4.48159 1.75469H4.34837V2.11133H4.09581ZM4.34837 1.54793H4.50657C4.58566 1.54793 4.63562 1.52018 4.63562 1.44802C4.63562 1.37725 4.58566 1.35088 4.50657 1.35088H4.34837V1.54793ZM5.4776 2.13769C5.18203 2.13769 4.99192 1.94481 4.99192 1.62148C4.99192 1.29954 5.21117 1.11359 5.49426 1.11359C5.74681 1.11359 5.93276 1.25513 5.95358 1.51046H5.68853C5.67604 1.40222 5.61082 1.32729 5.49287 1.32729C5.36104 1.32729 5.25974 1.4272 5.25974 1.62148C5.25974 1.81298 5.35133 1.92399 5.48732 1.92399C5.6025 1.92399 5.68159 1.84767 5.69408 1.72417H5.95774C5.9397 1.96285 5.76902 2.13769 5.4776 2.13769ZM5.961 2.11133L6.32735 1.13995H6.65068L7.01703 2.11133H6.7381L6.66733 1.89901H6.30654L6.23438 2.11133H5.961ZM6.37592 1.68947H6.59656L6.52301 1.47161C6.50775 1.42304 6.49526 1.38557 6.48693 1.34949C6.47861 1.38557 6.46473 1.42304 6.44947 1.473L6.37592 1.68947ZM7.46577 2.13769C7.20489 2.13769 7.03004 2.0017 7.01894 1.77135H7.28676C7.2937 1.87404 7.37141 1.92677 7.47409 1.92677C7.55319 1.92677 7.61841 1.89624 7.61841 1.82963C7.61841 1.77967 7.58095 1.75331 7.5074 1.73943L7.34227 1.7089C7.18129 1.67976 7.04947 1.59789 7.04947 1.42581C7.04947 1.2357 7.22154 1.11359 7.4505 1.11359C7.71555 1.11359 7.85571 1.24958 7.8682 1.44524H7.60037C7.59482 1.37447 7.54764 1.31896 7.44218 1.31896C7.36447 1.31896 7.30619 1.35088 7.30619 1.40778C7.30619 1.45912 7.35198 1.47716 7.43108 1.49104L7.58372 1.5174C7.73914 1.54238 7.87652 1.62287 7.87652 1.80743C7.87652 1.99199 7.74053 2.13769 7.46577 2.13769ZM8.2223 2.11133V1.35643H7.91563V1.13995H8.7857V1.35643H8.48041V2.11133H8.2223ZM8.88764 2.11133V1.13995H9.60507V1.35643H9.14575V1.51463H9.58287V1.72555H9.14575V1.89485H9.62727V2.11133H8.88764ZM9.76578 2.11133V1.13995H10.232C10.4222 1.13995 10.5665 1.22183 10.5665 1.40361C10.5665 1.5396 10.4735 1.61593 10.375 1.64368C10.4957 1.66311 10.5484 1.73943 10.5484 1.86155V2.11133H10.2889V1.88375C10.2889 1.788 10.2473 1.75469 10.1516 1.75469H10.0183V2.11133H9.76578ZM10.0183 1.54793H10.1765C10.2556 1.54793 10.3056 1.52018 10.3056 1.44802C10.3056 1.37725 10.2556 1.35088 10.1765 1.35088H10.0183V1.54793ZM10.9786 2.11133V1.13995H11.4172C11.6184 1.13995 11.7793 1.21072 11.7793 1.38974C11.7793 1.50075 11.7086 1.57568 11.6017 1.60344C11.7183 1.62564 11.8085 1.70196 11.8085 1.82685C11.8085 2.01835 11.6517 2.11133 11.4005 2.11133H10.9786ZM11.227 1.90456H11.4088C11.5032 1.90456 11.5462 1.87126 11.5462 1.80743C11.5462 1.74082 11.5032 1.71168 11.4088 1.71168H11.227V1.90456ZM11.227 1.52018H11.3991C11.481 1.52018 11.5198 1.48965 11.5198 1.42998C11.5198 1.37447 11.481 1.34672 11.3991 1.34672H11.227V1.52018ZM12.3502 2.13769C12.0755 2.13769 11.9284 1.98505 11.9284 1.72V1.13995H12.1865V1.68115C12.1865 1.84073 12.2337 1.91844 12.3516 1.91844C12.4696 1.91844 12.5181 1.83934 12.5181 1.68115V1.13995H12.7763V1.72C12.7763 1.98505 12.6222 2.13769 12.3502 2.13769ZM12.9409 2.11133V1.13995H13.199V2.11133H12.9409ZM13.3732 2.11133V1.13995H13.6313V1.89485H14.0809V2.11133H13.3732ZM14.1822 2.11133V1.13995H14.5597C14.8969 1.13995 15.0925 1.30231 15.0925 1.62703C15.0925 1.91428 14.9108 2.11133 14.5569 2.11133H14.1822ZM14.4403 1.89485H14.5361C14.7012 1.89485 14.8233 1.82269 14.8233 1.62703C14.8233 1.45496 14.7345 1.35643 14.543 1.35643H14.4403V1.89485ZM15.223 2.11133V1.13995H15.9404V1.35643H15.4811V1.51463H15.9182V1.72555H15.4811V1.89485H15.9626V2.11133H15.223ZM16.1011 2.11133V1.13995H16.5674C16.7575 1.13995 16.9018 1.22183 16.9018 1.40361C16.9018 1.5396 16.8088 1.61593 16.7103 1.64368C16.831 1.66311 16.8838 1.73943 16.8838 1.86155V2.11133H16.6243V1.88375C16.6243 1.788 16.5827 1.75469 16.4869 1.75469H16.3537V2.11133H16.1011ZM16.3537 1.54793H16.5119C16.591 1.54793 16.6409 1.52018 16.6409 1.44802C16.6409 1.37725 16.591 1.35088 16.5119 1.35088H16.3537V1.54793ZM17.4316 2.13769C17.1707 2.13769 16.9958 2.0017 16.9847 1.77135H17.2526C17.2595 1.87404 17.3372 1.92677 17.4399 1.92677C17.519 1.92677 17.5842 1.89624 17.5842 1.82963C17.5842 1.77967 17.5468 1.75331 17.4732 1.73943L17.3081 1.7089C17.1471 1.67976 17.0153 1.59789 17.0153 1.42581C17.0153 1.2357 17.1873 1.11359 17.4163 1.11359C17.6814 1.11359 17.8215 1.24958 17.834 1.44524H17.5662C17.5606 1.37447 17.5135 1.31896 17.408 1.31896C17.3303 1.31896 17.272 1.35088 17.272 1.40778C17.272 1.45912 17.3178 1.47716 17.3969 1.49104L17.5495 1.5174C17.705 1.54238 17.8423 1.62287 17.8423 1.80743C17.8423 1.99199 17.7063 2.13769 17.4316 2.13769ZM18.2504 2.11133V1.13995H18.5085V2.11133H18.2504ZM18.6827 2.11133V1.13995H19.0504L19.3543 1.76025C19.3488 1.71445 19.3474 1.67143 19.3474 1.62009L19.346 1.13995H19.5972V2.11133H19.2794L18.9255 1.3939C18.9311 1.44108 18.9311 1.47716 18.9311 1.53267L18.9339 2.11133H18.6827ZM19.7722 2.11133V1.13995H20.1497C20.4869 1.13995 20.6826 1.30231 20.6826 1.62703C20.6826 1.91428 20.5008 2.11133 20.1469 2.11133H19.7722ZM20.0304 1.89485H20.1261C20.2912 1.89485 20.4134 1.82269 20.4134 1.62703C20.4134 1.45496 20.3245 1.35643 20.133 1.35643H20.0304V1.89485ZM20.813 2.11133V1.13995H21.0711V2.11133H20.813ZM21.1509 2.11133L21.5173 1.13995H21.8406L22.207 2.11133H21.928L21.8573 1.89901H21.4965L21.4243 2.11133H21.1509ZM21.5659 1.68947H21.7865L21.7129 1.47161C21.6977 1.42304 21.6852 1.38557 21.6769 1.34949C21.6685 1.38557 21.6547 1.42304 21.6394 1.473L21.5659 1.68947Z" fill="#9259EF"/>
</g>
<path d="M19.8754 20.8613C19.8781 20.7799 19.9228 20.6958 20.0713 20.6332L20.1885 20.584C20.2797 20.5456 20.3548 20.5026 20.3548 20.4132C20.3548 20.3282 20.2779 20.2754 20.1572 20.2754C20.0248 20.2754 19.9478 20.3407 19.9478 20.4489V20.4606H19.8834V20.4489C19.8834 20.3139 19.9863 20.2226 20.1572 20.2226C20.3137 20.2226 20.4201 20.296 20.4201 20.4132C20.4201 20.5321 20.3209 20.5876 20.2189 20.6314L20.1124 20.6762C20.0033 20.7218 19.9586 20.7755 19.9514 20.8059H20.4336V20.8613H19.8754ZM20.8427 20.8739C20.6665 20.8739 20.5421 20.7441 20.5421 20.5491C20.5421 20.355 20.6682 20.2226 20.8427 20.2226C21.0171 20.2226 21.1423 20.355 21.1423 20.5491C21.1423 20.7441 21.0189 20.8739 20.8427 20.8739ZM20.6083 20.5482C20.6083 20.7209 20.7013 20.8211 20.8427 20.8211C20.9849 20.8211 21.0762 20.7191 21.0762 20.5482C21.0762 20.3792 20.9849 20.2754 20.8427 20.2754C20.7013 20.2754 20.6083 20.3774 20.6083 20.5482ZM21.2495 20.8613C21.2522 20.7799 21.2969 20.6958 21.4454 20.6332L21.5626 20.584C21.6538 20.5456 21.729 20.5026 21.729 20.4132C21.729 20.3282 21.652 20.2754 21.5313 20.2754C21.3989 20.2754 21.322 20.3407 21.322 20.4489V20.4606H21.2575V20.4489C21.2575 20.3139 21.3604 20.2226 21.5313 20.2226C21.6878 20.2226 21.7943 20.296 21.7943 20.4132C21.7943 20.5321 21.695 20.5876 21.593 20.6314L21.4866 20.6762C21.3774 20.7218 21.3327 20.7755 21.3255 20.8059H21.8077V20.8613H21.2495ZM22.2809 20.8613V20.6932H21.8721V20.6314L22.2693 20.2352H22.34V20.6413H22.5019V20.6932H22.34V20.8613H22.2809ZM21.9348 20.6413H22.2809V20.2951C22.2595 20.3174 22.2371 20.3398 22.2148 20.3613L22.0054 20.5697C21.9813 20.593 21.9589 20.6171 21.9348 20.6413Z" fill="white"/>
<path d="M2.35662 20.8613V20.2352H2.8844V20.2897H2.42013V20.5151H2.86561V20.5688H2.42013V20.8068H2.89961V20.8613H2.35662ZM3.32055 20.8739C3.08798 20.8739 2.99852 20.7683 2.99137 20.6547H3.06024C3.06561 20.7271 3.1336 20.8184 3.31966 20.8184C3.48515 20.8184 3.57103 20.7665 3.57103 20.686C3.57103 20.6225 3.52361 20.5921 3.40106 20.5769L3.23557 20.5572C3.0844 20.5393 3.0191 20.4856 3.0191 20.398C3.0191 20.3049 3.11839 20.2226 3.30982 20.2226C3.50304 20.2226 3.6077 20.3094 3.61754 20.4158H3.54687C3.53882 20.3398 3.45384 20.2781 3.30982 20.2781C3.15954 20.2781 3.08529 20.3318 3.08529 20.3953C3.08529 20.4534 3.12733 20.4838 3.25257 20.4981L3.427 20.5187C3.5746 20.5357 3.6408 20.5974 3.6408 20.6833C3.6408 20.7933 3.53435 20.8739 3.32055 20.8739ZM3.97718 20.8613V20.2906H3.67125V20.2352H4.34662V20.2906H4.04069V20.8613H3.97718ZM4.45581 20.8613V20.2352H4.7528C4.99969 20.2352 5.1455 20.347 5.1455 20.5482C5.1455 20.7495 5.00774 20.8613 4.76801 20.8613H4.45581ZM4.51932 20.8059H4.74654C4.96391 20.8059 5.07752 20.7173 5.07752 20.5482C5.07752 20.3792 4.96212 20.2906 4.74385 20.2906H4.51932V20.8059Z" fill="white"/>
<path d="M0.157773 1.14042C0.157773 0.593942 0.600779 0.150937 1.14725 0.150937H23.8141C24.3605 0.150937 24.8036 0.593943 24.8036 1.14042V23.6409C24.8036 23.9789 24.631 24.2935 24.3461 24.4752L13.0127 31.7022C12.6882 31.9091 12.2731 31.9091 11.9487 31.7022L0.615248 24.4752C0.33028 24.2935 0.157773 23.9789 0.157773 23.6409V1.14042Z" stroke="white" stroke-width="0.301875"/>
<g clip-path="url(#clip0_194_1713)">
<path fill-rule="evenodd" clip-rule="evenodd" d="M12.2857 15.7586L13.562 15.7436L13.5515 14.9987L12.2758 15.0159L12.2857 15.7586Z" fill="#FEFEFE"/>
<path fill-rule="evenodd" clip-rule="evenodd" d="M12.2788 15.2633L13.5544 15.2461L13.5512 14.9985L12.2755 15.0157L12.2788 15.2633Z" fill="#ED8417"/>
<path fill-rule="evenodd" clip-rule="evenodd" d="M12.2857 15.7594L13.562 15.7444L13.558 15.4946L12.2824 15.5118L12.2857 15.7594Z" fill="#589B2A"/>
<path fill-rule="evenodd" clip-rule="evenodd" d="M12.9162 15.2806L12.9152 15.3356L12.9185 15.3668L12.9204 15.3363L12.9162 15.2806C12.9206 15.279 12.9229 15.2783 12.9259 15.2798C12.9244 15.2827 12.9274 15.2842 12.9304 15.2857C12.9326 15.285 12.9341 15.2819 12.9341 15.2819C12.9363 15.2811 12.9393 15.2827 12.9415 15.2819L12.9258 15.337L12.9216 15.3684L12.9309 15.3377L12.9438 15.2812C12.9445 15.2834 12.9476 15.2848 12.9505 15.2863C12.9513 15.2886 12.952 15.2907 12.955 15.2922C12.9573 15.2914 12.9595 15.2907 12.9587 15.2884C12.9617 15.2899 12.9647 15.2913 12.9677 15.2928L12.937 15.3407L12.9246 15.3698L12.9429 15.3436L12.9677 15.2928C12.9707 15.2942 12.9715 15.2965 12.9745 15.298L12.9731 15.301C12.9738 15.3031 12.9768 15.3046 12.979 15.3038L12.9812 15.3031C12.9842 15.3046 12.9872 15.306 12.9879 15.3083L12.9467 15.3474L12.9276 15.3714L12.9505 15.351L12.988 15.3082C12.991 15.3097 12.9917 15.3119 12.9947 15.3134C12.9937 15.3154 12.9935 15.3171 12.994 15.3186C12.9926 15.3216 12.9955 15.3231 12.9978 15.3223L13 15.3215C13.0008 15.3237 13.0037 15.3252 13.0045 15.3274L12.9542 15.3547L12.9283 15.3736L12.9587 15.3606L13.0053 15.3297C13.006 15.3319 13.0068 15.3341 13.0098 15.3356C13.0076 15.3363 13.0062 15.3393 13.0069 15.3415C13.0055 15.3446 13.0085 15.346 13.0106 15.3452L13.0128 15.3444L13.0159 15.3534L12.9602 15.3651L12.9299 15.3781L12.9625 15.3718L13.0159 15.3534C13.0167 15.3556 13.0175 15.3578 13.016 15.3608C13.0138 15.3615 13.0123 15.3646 13.0131 15.3668C13.0138 15.3689 13.0146 15.3712 13.0168 15.3704L13.019 15.3697C13.0176 15.3727 13.0191 15.3771 13.0199 15.3793L12.9619 15.377L12.9306 15.3803L12.9634 15.3814L13.0199 15.3793C13.0185 15.3823 13.0192 15.3845 13.0177 15.3875C13.0155 15.3883 13.0133 15.389 13.0141 15.3913C13.0126 15.3943 13.0156 15.3958 13.0186 15.3972C13.0172 15.4002 13.0157 15.4032 13.0165 15.4055L12.9971 15.3997L12.9635 15.3889L12.9292 15.3833L12.9605 15.3949L13.0165 15.4055C13.015 15.4085 13.0135 15.4114 13.0143 15.4137L13.0122 15.4145L13.0114 15.4122C13.0091 15.413 13.0077 15.416 13.0084 15.4182L13.0062 15.4189C13.007 15.4212 13.0092 15.4204 13.0092 15.4204L13.01 15.4227C13.0085 15.4257 13.0064 15.4264 13.0049 15.4294L12.96 15.4001L12.9301 15.3856L12.9443 15.3981L12.9562 15.4039L13.0048 15.4294C13.0033 15.4325 13.0041 15.4346 13.0027 15.4376L12.9998 15.4361C12.9975 15.4369 12.993 15.4385 12.9938 15.4407L12.9953 15.4451C12.9931 15.4459 12.9917 15.4489 12.9894 15.4497L12.9533 15.4099L12.9263 15.3894L12.9474 15.4144L12.9902 15.452C12.988 15.4527 12.9866 15.4557 12.9844 15.4565L12.9813 15.455C12.9792 15.4558 12.9769 15.4565 12.9754 15.4596L12.9762 15.4618C12.9747 15.4647 12.9725 15.4655 12.9703 15.4663L12.9438 15.4182L12.925 15.3924L12.9394 15.4198L12.9704 15.4662C12.9659 15.4678 12.9645 15.4708 12.9623 15.4716C12.9615 15.4693 12.9607 15.4671 12.9585 15.4679C12.9563 15.4687 12.954 15.4695 12.9526 15.4724L12.9533 15.4747L12.9466 15.477L12.9327 15.4221L12.9228 15.3932L12.9282 15.4237L12.9445 15.4778L12.9378 15.4801C12.937 15.4778 12.934 15.4764 12.934 15.4764C12.9288 15.4758 12.9273 15.4787 12.9281 15.4809C12.9259 15.4817 12.9229 15.4802 12.9206 15.481L12.9215 15.426L12.9175 15.3926L12.9164 15.4253L12.9184 15.4818C12.9161 15.4826 12.9132 15.4812 12.911 15.4819L12.9102 15.4797C12.9094 15.4775 12.9086 15.4752 12.9063 15.476C12.9041 15.4767 12.902 15.4775 12.9005 15.4806C12.8974 15.479 12.8952 15.4798 12.8923 15.4784L12.911 15.4247L12.9152 15.3935L12.9028 15.4225L12.8922 15.4784C12.8892 15.4769 12.887 15.4777 12.884 15.4763C12.8855 15.4758 12.886 15.4748 12.8855 15.4733C12.8847 15.4711 12.8839 15.4689 12.8817 15.4697L12.875 15.472C12.875 15.472 12.872 15.4705 12.869 15.4691L12.8998 15.4211L12.9122 15.392L12.8938 15.4182L12.869 15.4691C12.8661 15.4676 12.8631 15.4662 12.8623 15.4639L12.8615 15.4617C12.863 15.4586 12.86 15.4572 12.857 15.4557C12.857 15.4557 12.8548 15.4565 12.8534 15.4595C12.8526 15.4572 12.8495 15.4558 12.8488 15.4536L12.8901 15.4145L12.9092 15.3905L12.8841 15.4116L12.8481 15.4514C12.8451 15.4499 12.8443 15.4477 12.8414 15.4462C12.8428 15.4457 12.8433 15.4447 12.8428 15.4432C12.8442 15.4402 12.8412 15.4387 12.8391 15.4395C12.8383 15.4373 12.836 15.4381 12.836 15.4381C12.8352 15.4358 12.8323 15.4344 12.8315 15.4322L12.8818 15.4049L12.9077 15.386L12.8781 15.4012L12.8315 15.4322C12.8307 15.4299 12.83 15.4277 12.8262 15.4241C12.8285 15.4233 12.8307 15.4225 12.8299 15.4203C12.8314 15.4172 12.8284 15.4158 12.8261 15.4166C12.8261 15.4166 12.8232 15.4151 12.8239 15.4173L12.8209 15.4085L12.8758 15.3945L12.9069 15.3838L12.8742 15.3901L12.8209 15.4085L12.8178 15.3996C12.82 15.3988 12.8222 15.3981 12.8237 15.395C12.823 15.3928 12.8199 15.3913 12.8169 15.3899C12.8184 15.3869 12.8176 15.3847 12.8169 15.3825L12.8727 15.3856L12.9061 15.3815L12.8726 15.3782L12.8169 15.3825C12.8184 15.3794 12.8169 15.375 12.8183 15.3721L12.8191 15.3743C12.8213 15.3735 12.8227 15.3706 12.822 15.3683C12.8234 15.3654 12.8204 15.3639 12.8182 15.3647C12.8197 15.3617 12.8189 15.3595 12.8203 15.3565L12.8733 15.373L12.9046 15.3771L12.8762 15.3671L12.8203 15.3565C12.8218 15.3536 12.8232 15.3505 12.8225 15.3483L12.8247 15.3475C12.8276 15.3489 12.8292 15.346 12.8284 15.3437C12.8299 15.3408 12.8269 15.3393 12.8269 15.3393C12.8283 15.3363 12.8275 15.3341 12.829 15.3311L12.8769 15.3617L12.9061 15.3741L12.8799 15.3558L12.829 15.3311C12.8305 15.328 12.8327 15.3273 12.8341 15.3243L12.8372 15.3258C12.8394 15.325 12.8408 15.322 12.8422 15.3191L12.8415 15.3168C12.843 15.3138 12.8452 15.313 12.8466 15.31L12.8835 15.352L12.9097 15.3704L12.8894 15.3475L12.8466 15.3101C12.848 15.3071 12.8503 15.3064 12.8525 15.3056L12.8555 15.307C12.8577 15.3062 12.8599 15.3055 12.8606 15.3002L12.8599 15.298C12.8621 15.2972 12.8643 15.2965 12.8658 15.2934L12.893 15.3437L12.9119 15.3696L12.8967 15.34L12.8658 15.2934L12.8746 15.2904C12.8752 15.2919 12.8762 15.2924 12.8777 15.2919C12.8807 15.2933 12.8821 15.2904 12.8836 15.2873L12.8828 15.2851L12.8894 15.2829L12.9034 15.3377L12.9142 15.3688L12.9078 15.3362L12.8902 15.2851L12.8992 15.282C12.9 15.2842 12.9007 15.2864 12.9029 15.2857C12.905 15.2849 12.9074 15.2841 12.9088 15.2811C12.911 15.2804 12.9133 15.2796 12.9163 15.281L12.9162 15.2806ZM12.9168 15.268C12.8551 15.2693 12.8051 15.319 12.8064 15.3806C12.8078 15.4424 12.8574 15.4923 12.9191 15.491C12.9816 15.4918 13.031 15.44 13.0296 15.3783C13.0282 15.3167 12.9786 15.2666 12.9168 15.268Z" fill="#292773"/>
<path fill-rule="evenodd" clip-rule="evenodd" d="M12.9186 15.3638C12.9283 15.3629 12.9358 15.3703 12.9358 15.3777C12.9367 15.3874 12.9271 15.3956 12.9197 15.3958C12.91 15.3966 12.9025 15.3892 12.9017 15.3796C12.9008 15.3699 12.9081 15.3624 12.9186 15.3638Z" fill="#FEFEFE"/>
<path fill-rule="evenodd" clip-rule="evenodd" d="M12.9194 15.3659C12.9271 15.3658 12.9318 15.3718 12.9319 15.3796C12.932 15.3873 12.9259 15.3919 12.919 15.3943C12.9113 15.3943 12.9059 15.386 12.9066 15.3805C12.9065 15.3729 12.9118 15.3659 12.9194 15.3659Z" fill="#292773"/>
<rect x="12.2666" y="15.0195" width="0.0247387" height="1.29466" fill="#300A6F"/>
</g>
<defs>
<clipPath id="clip0_194_1713">
<rect width="1.84426" height="1.80333" fill="white" transform="translate(11.6729 15.209) rotate(-19.0307)"/>
</clipPath>
</defs>
</svg>
