<svg width="49" height="48" viewBox="0 0 49 48" fill="none" xmlns="http://www.w3.org/2000/svg">
<path id="Vector" d="M8.5 0C4.08171 0 0.5 3.58171 0.5 8V40C0.5 44.4183 4.08171 48 8.5 48H40.5C44.9183 48 48.5 44.4183 48.5 40V8C48.5 3.58171 44.9183 0 40.5 0H8.5ZM10.8839 10.2857H19.9554L26.3973 19.4397L34.2143 10.2857H37.0714L27.6875 21.2723L39.2589 37.7143H30.1897L22.7143 27.0938L13.6429 37.7143H10.7857L21.4241 25.2612L10.8839 10.2857ZM15.2589 12.5714L31.3817 35.4286H34.8839L18.7612 12.5714H15.2589Z" fill="black"/>
</svg>
